<?xml version="1.0" encoding="utf-8"?>
<!-- Generator: Adobe Illustrator 24.1.0, SVG Export Plug-In . SVG Version: 6.00 Build 0)  -->
<svg version="1.1" id="Capa_1" xmlns="http://www.w3.org/2000/svg" xmlns:xlink="http://www.w3.org/1999/xlink" x="0px" y="0px"
	 viewBox="0 0 50 50" style="enable-background:new 0 0 50 50;" xml:space="preserve">
<style type="text/css">
	.st0{fill:#9BCDCE;}
	.st1{fill:#FFFFFF;}
	.st2{display:none;fill:#FFFFFF;}
</style>
<g>
	<g>
		<g id="AI_2_">
			<rect class="st0" width="50" height="50"/>
			<rect x="3.2" y="3.2" class="st1" width="43.7" height="43.7"/>
			<g>
				<g>
					<path class="st0" d="M27.4,36.1c-0.7,0-1.4,0-2.1,0c-0.2,0-0.3-0.1-0.4-0.3c-0.4-1.6-0.8-3.1-1.2-4.7c-0.1-0.3-0.2-0.4-0.6-0.3
						c-1.3,0.2-2.6,0.2-3.9,0c-0.5-0.1-0.7,0-0.7,0.3c-0.4,1.6-0.8,3.1-1.2,4.6c-0.1,0.3-0.2,0.4-0.5,0.4c-1.2,0-2.5,0-3.7,0
						c-0.5,0-0.5-0.1-0.4-0.5c1.3-4.4,2.5-8.7,3.8-13.1c0.6-2.2,1.3-4.4,1.9-6.6c0.3-1.1,0.6-2.3,1-3.4c0.1-0.4,0.3-0.5,0.9-0.4
						c0.7,0.1,1.5,0.1,2.3,0c0.5-0.1,0.6,0,0.7,0.3c1.2,4.1,2.4,8.2,3.5,12.3c1,3.6,2.1,7.1,3.1,10.7c0.2,0.6,0.2,0.6-0.5,0.6
						C28.7,36.1,28.1,36.1,27.4,36.1L27.4,36.1z M22.8,26.9c-0.5-2.5-1.4-4.8-1.6-7.4c-0.5,2.5-1,4.9-1.6,7.4H22.8z"/>
				</g>
			</g>
			<g>
				<path class="st0" d="M35.6,27.6c0,2.2,0,4.5,0,6.7c0,0.5,0,1,0,1.5c0,0.3-0.1,0.4-0.4,0.4c-1.2,0-2.4,0-3.6,0
					c-0.4,0-0.4-0.1-0.4-0.4c0-2,0-4,0-6.1c0-3.4,0-6.8,0-10.1c0-0.5,0-0.5,0.5-0.5c1.2,0,2.4,0,3.5,0c0.4,0,0.4,0,0.5,0.4
					c0,1.5,0,3.1,0,4.6C35.6,25.2,35.6,26.4,35.6,27.6L35.6,27.6z"/>
			</g>
			<g>
				<path class="st0" d="M33.3,12c1,0,1.8,0.3,2.3,1.1c1.1,1.6,0.2,3.6-1.7,3.9c-0.7,0.1-1.5,0.1-2.1-0.3c-0.9-0.5-1.3-1.5-1.1-2.5
					c0.2-1.1,0.9-1.9,1.9-2.1C32.8,12,33.1,12,33.3,12z"/>
			</g>
		</g>
	</g>
</g>
</svg>
