<?xml version="1.0" encoding="utf-8"?>
<!-- Generator: Adobe Illustrator 24.1.0, SVG Export Plug-In . SVG Version: 6.00 Build 0)  -->
<svg version="1.1" id="Capa_1" xmlns="http://www.w3.org/2000/svg" xmlns:xlink="http://www.w3.org/1999/xlink" x="0px" y="0px"
	 viewBox="0 0 50 50" style="enable-background:new 0 0 50 50;" xml:space="preserve">
<style type="text/css">
	.st0{fill:#9BCDCE;}
	.st1{fill:#FFFFFF;}
	.st2{display:none;fill:#FFFFFF;}
</style>
<g>
	<g id="BE_1_">
		<path class="st1" d="M49.7,23c0,1.3,0,2.5,0,3.8c-0.1,0.3-0.1,0.6-0.2,0.8C48.2,37.3,43,44.1,34,47.9c-2.3,1-4.9,1.2-7.3,1.8
			c-1.3,0-2.5,0-3.8,0c-0.2-0.1-0.4-0.1-0.6-0.2C12.2,48.5,4,41.7,1.1,32c-0.5-1.6-0.7-3.3-1.1-5c0-1.4,0-2.8,0-4.2
			c0.1-0.2,0.1-0.3,0.2-0.5C1.6,11.5,7.6,4.4,17.9,1c1.5-0.5,3.2-0.7,4.8-1c1.4,0,2.8,0,4.2,0c0.2,0.1,0.3,0.2,0.5,0.2
			c10.3,1.1,18.4,7.9,21.3,17.7C49.2,19.6,49.4,21.3,49.7,23z M3.9,25.6C4.2,37.3,14.5,47,27.1,45.7C37.8,44.6,46.9,35,45.7,22.6
			C44.6,11.9,34.9,2.7,22.5,4C11.6,5.2,3.5,14.6,3.9,25.6z"/>
		<path class="st1" d="M12.5,17.3c2.9,0,5.8-0.1,8.7,0c1.4,0.1,2.5,1.1,2.8,2.6c0.4,1.7,0.1,3.1-1.6,4.2c1.3,0.6,2.2,1.6,2.1,3
			c0,1.1-0.3,2.2-0.8,3.1c-0.8,1.5-2.4,1.8-4,2c-0.3,0-0.6,0-0.9,0c-2.1,0-4.3,0-6.5,0C12.5,27.2,12.5,22.2,12.5,17.3z M15.4,29.6
			c1.5,0,2.9,0.1,4.3,0c1.1-0.1,1.8-0.8,1.8-2c0-0.9-0.4-1.8-1.3-1.9c-1.6-0.1-3.2,0-4.8,0C15.4,27,15.4,28.2,15.4,29.6z M15.5,23
			c1.5,0,2.9,0.1,4.4,0c0.9,0,1.4-0.6,1.4-1.5S21,19.9,20,19.9c-1.5-0.1-3,0-4.5,0C15.5,20.9,15.5,21.9,15.5,23z"/>
		<path class="st1" d="M29.2,27.4c0,1.3,0.5,2.2,1.6,2.6c1.1,0.5,2.2,0.2,3.1-0.6c0.4-0.3,1.1-0.4,1.7-0.5c0.5-0.1,1,0,1.7,0
			c-0.4,0.7-0.6,1.3-1,1.8c-1.5,1.8-3.5,2.1-5.6,1.8c-1.9-0.3-3.4-1.3-4-3.3c-0.5-1.8-0.5-3.6,0.2-5.3c0.9-2.2,3.2-3.4,5.8-3
			c2.4,0.3,4.1,1.9,4.5,4.2c0.1,0.7,0.1,1.5,0.2,2.4C34.5,27.4,31.9,27.4,29.2,27.4z M34.2,25.5c-0.1-1.6-1-2.4-2.6-2.4
			c-1.4,0.1-2.2,0.9-2.2,2.4C31,25.5,32.5,25.5,34.2,25.5z"/>
		<path class="st1" d="M28.1,20.1c0-0.5,0-0.9,0-1.3c2.5,0,5,0,7.6,0c0,0.4,0,0.8,0,1.3C33.1,20.1,30.6,20.1,28.1,20.1z"/>
	</g>
</g>
</svg>
