<?xml version="1.0" encoding="utf-8"?>
<!-- Generator: Adobe Illustrator 24.1.0, SVG Export Plug-In . SVG Version: 6.00 Build 0)  -->
<svg version="1.1" id="Capa_1" xmlns="http://www.w3.org/2000/svg" xmlns:xlink="http://www.w3.org/1999/xlink" x="0px" y="0px"
	 viewBox="0 0 50 50" style="enable-background:new 0 0 50 50;" xml:space="preserve">
<style type="text/css">
	.st0{fill:#9BCDCE;}
	.st1{fill:#FFFFFF;}
	.st2{display:none;fill:#FFFFFF;}
</style>
<g>
	<g id="LR_2_">
		<g id="Capa_2_1_">
			<rect class="st0" width="49.9" height="49.9"/>
			<rect x="3.1" y="3.1" class="st1" width="43.7" height="43.7"/>
			<g>
				<g>
					<path class="st0" d="M6.8,24.9c0-3.4,0-6.8,0-10.2c0-0.8,0.2-1,1-1c1.9,0,3.7-0.1,5.6,0c4.4,0.2,7.2,2.4,8.3,6.7
						c0.8,3.1,0.8,6.2-0.2,9.2c-1.2,3.9-4.5,6.3-8.6,6.4c-1.7,0-3.5,0-5.2,0c-0.7,0-0.9-0.2-0.8-0.9C6.8,31.7,6.8,28.3,6.8,24.9z
						 M10,24.8c0,1.9,0,3.7,0,5.6c0,2.6,0,2.6,2.6,2.6s4.6-1.4,5.5-3.8c1.1-2.8,1.1-5.6,0.2-8.5c-0.7-2-2-3.4-4.2-3.8
						c-1-0.2-2.1-0.1-3.1-0.1c-0.8,0-1,0.3-1,1C10,20.2,10,22.5,10,24.8z"/>
					<path class="st0" d="M38.7,32.4c0.2-1.3,0.5-2.6,0.7-3.9c0.6-2.7,1.2-5.5,1.8-8.2c0.1-0.5,0.3-0.8,0.9-0.7c0.7,0,1.4,0,2.2,0
						c-0.3,1.2-0.5,2.3-0.8,3.3c-1,4.1-2.1,8.3-3.1,12.4c-0.1,0.6-0.4,0.8-1,0.8s-1.3,0-1.9,0c-0.5,0-0.8-0.1-0.9-0.7
						c-0.7-3.6-1.4-7.3-2.1-10.9c0-0.2-0.1-0.3-0.4-0.5c-0.2,0.8-0.4,1.7-0.5,2.5c-0.7,3-1.4,5.9-2,8.9c-0.1,0.5-0.4,0.8-1,0.7
						c-0.2,0-0.3,0-0.5,0c-2.2,0-2.2,0-2.7-2.1c-1-4.5-2-9-3.1-13.5c-0.2-0.9-0.2-0.9,0.8-0.9c2.2,0,2.3,0,2.7,2.2
						c0.7,3.4,1.3,6.7,2,10.1c0,0.1,0.1,0.3,0.3,0.6c0.3-1.6,0.6-3,0.9-4.4c0.5-2.6,1.1-5.1,1.6-7.7c0.1-0.6,0.4-0.8,0.9-0.8
						c2.4,0,2.4,0,2.9,2.3c0.7,3.3,1.3,6.7,1.9,10c0,0.2,0.1,0.3,0.2,0.5C38.6,32.4,38.6,32.4,38.7,32.4z"/>
				</g>
			</g>
		</g>
	</g>
</g>
</svg>
