<?xml version="1.0" encoding="utf-8"?>
<!-- Generator: Adobe Illustrator 24.1.0, SVG Export Plug-In . SVG Version: 6.00 Build 0)  -->
<svg version="1.1" id="Capa_1" xmlns="http://www.w3.org/2000/svg" xmlns:xlink="http://www.w3.org/1999/xlink" x="0px" y="0px"
	 viewBox="0 0 50 50" style="enable-background:new 0 0 50 50;" xml:space="preserve">
<style type="text/css">
	.st0{fill:#9BCDCE;}
	.st1{fill:#FFFFFF;}
	.st2{display:none;fill:#FFFFFF;}
</style>
<g>
	<g>
		<g id="ID_2_">
			<rect class="st0" width="50" height="50"/>
			<rect x="3.2" y="3.2" class="st1" width="43.7" height="43.7"/>
			<path class="st0" d="M32.7,20.2c0-3,0-6.1,0-9.2c1.8,0,3.6,0,5.4,0c0,8.3,0,16.7,0,25.1c-1.5,0-3,0-4.7,0
				c-0.1-0.8-0.2-1.6-0.2-2.5c-0.4,0.5-0.8,1-1.2,1.4c-2.9,2.4-7.2,2-9.6-1c-1.7-2.2-2.2-4.7-2-7.4c0.1-2.1,0.8-3.9,2.1-5.5
				c2.1-2.5,5.9-3.3,8.7-1.9C31.8,19.4,32.2,19.9,32.7,20.2z M32.8,27.3C32.7,27.3,32.7,27.3,32.8,27.3c-0.1-0.6,0-1.2-0.1-1.8
				c-0.1-1.4-1.1-2.7-2.5-3s-2.9,0.3-3.6,1.6c-1,2-1.1,4-0.2,6c0.6,1.4,2,2.2,3.5,2c1.4-0.2,2.5-1.2,2.7-2.8
				C32.7,28.7,32.7,28,32.8,27.3z"/>
			<path class="st0" d="M12.6,12.3c1.8,0,3.6,0,5.4,0c0,8,0,15.9,0,23.8c-1.8,0-3.6,0-5.4,0C12.6,28.2,12.6,20.2,12.6,12.3z"/>
		</g>
	</g>
</g>
</svg>
