<?xml version="1.0" encoding="utf-8"?>
<!-- Generator: Adobe Illustrator 24.1.0, SVG Export Plug-In . SVG Version: 6.00 Build 0)  -->
<svg version="1.1" id="Capa_1" xmlns="http://www.w3.org/2000/svg" xmlns:xlink="http://www.w3.org/1999/xlink" x="0px" y="0px"
	 viewBox="0 0 50 50" style="enable-background:new 0 0 50 50;" xml:space="preserve">
<style type="text/css">
	.st0{fill:#9BCDCE;}
	.st1{fill:#FFFFFF;}
	.st2{display:none;fill:#FFFFFF;}
</style>
<g>
	<g>
		<g id="Capa_6_2_">
			<path class="st2" d="M25,49.6C11.4,49.5,0.4,38.4,0.6,25C0.6,11.1,11.8,0,25.5,0.2C39,0.4,50.2,11.7,50,25.3
				C49.8,38.7,38.5,49.8,25,49.6z M25.5,10.6c-2,0-4.1,0-6.1,0c-4.7,0.1-8.2,3.4-8.4,8c-0.1,4.2-0.1,8.5,0,12.7
				c0.1,4.5,3.6,7.9,8.2,7.9c4,0.1,8,0.1,12,0c4.8-0.1,8.3-3.5,8.4-8.3c0.1-4.1,0.1-8.1,0-12.2c-0.2-4.8-3.7-8.1-8.5-8.2
				C29.2,10.6,27.3,10.6,25.5,10.6z"/>
			<path class="st1" d="M25.3,0c3.3,0,6.5,0,9.8,0c8.3,0.1,14.5,5.9,14.8,14.2c0.2,7.1,0.2,14.1,0,21.2c-0.2,8.3-6.4,14.2-14.6,14.3
				c-6.9,0.1-13.9,0.1-20.8,0C6.4,49.6,0.3,43.9,0.2,36c-0.2-7.3-0.2-14.7,0-22C0.3,5.9,6.4,0.2,14.6,0C18.2,0,21.7,0,25.3,0z
				 M25,45.1L25,45.1c3.7,0,7.4,0.1,11,0c5.3-0.2,8.9-3.8,9.1-9.1c0.2-7.2,0.2-14.4,0-21.6C45,8.8,41,5,35.5,5
				c-7.1-0.1-14.1-0.1-21.2,0C8.8,5,5,8.5,4.8,13.7c-0.2,7.6-0.2,15.2,0,22.8c0.2,4.9,3.8,8.3,8.6,8.5C17.4,45.2,21.2,45.1,25,45.1z
				"/>
			<path class="st2" d="M25,45.1c-3.8,0-7.6,0.1-11.4,0c-4.9-0.2-8.5-3.6-8.6-8.5c-0.2-7.6-0.2-15.2,0-22.9c0.2-5.2,4-8.7,9.3-8.8
				c7.1-0.1,14.1-0.1,21.2,0C41,5,45,8.8,45,14.3c0.1,7.2,0.2,14.4,0,21.6C45,41.2,41.3,44.8,36,45C32.4,45.2,28.7,45.1,25,45.1
				L25,45.1z M25,12.2c-7.2,0-13,5.8-13,12.8s6,13,13,13c7.1,0,12.9-5.8,12.9-12.9C37.8,17.8,32.2,12.2,25,12.2z"/>
			<path class="st1" d="M25,12.2c7.3,0,12.8,5.6,12.8,12.9c0,7.1-5.8,13-12.9,12.9c-7,0-13-6-13-13S17.8,12.2,25,12.2z M33,24.9
				c-0.1-4.7-3.6-8.1-8.3-8c-4.6,0.1-8.3,3.8-8.2,8.4c0.1,4.4,4.1,8.3,8.5,8.2C29.6,33.3,33.2,29.5,33,24.9z"/>
			<path class="st2" d="M33,24.9c0.1,4.6-3.5,8.4-8,8.5c-4.4,0.1-8.4-3.8-8.5-8.2c-0.1-4.5,3.6-8.3,8.2-8.4
				C29.5,16.8,33,20.2,33,24.9z"/>
			<circle class="st1" cx="36.5" cy="10.5" r="2.5"/>
		</g>
	</g>
</g>
</svg>
