<?xml version="1.0" encoding="utf-8"?>
<!-- Generator: Adobe Illustrator 24.1.0, SVG Export Plug-In . SVG Version: 6.00 Build 0)  -->
<svg version="1.1" id="Capa_1" xmlns="http://www.w3.org/2000/svg" xmlns:xlink="http://www.w3.org/1999/xlink" x="0px" y="0px"
	 viewBox="0 0 50 50" style="enable-background:new 0 0 50 50;" xml:space="preserve">
<style type="text/css">
	.st0{fill:#9BCDCE;}
	.st1{fill:#FFFFFF;}
	.st2{display:none;fill:#FFFFFF;}
</style>
<g>
	<g id="LR_1_">
		<g id="Capa_2_4_">
			<rect class="st0" width="50" height="50"/>
			<rect x="3.5" y="3.1" class="st1" width="43.4" height="43.4"/>
			<path class="st0" d="M11.9,36.7c0-8.4,0-16.8,0-25.2c2.1,0,4.1,0,6.2,0c0,6.6,0,13.2,0,19.9c2.9,0,5.7,0,8.5,0c0,1.8,0,3.5,0,5.3
				C21.7,36.7,16.8,36.7,11.9,36.7z"/>
			<path class="st0" d="M29.1,36.7c0-6,0-12,0-18c1.5,0,3.1,0,4.7,0c0.1,1.1,0.1,2.2,0.2,3.3c1.3-2.6,3.2-4,6.2-3.6
				c0,1.8,0,3.5,0,5.2c-0.5,0-0.9-0.1-1.4-0.1c-1.4,0-2.6,0.4-3.4,1.6c-0.5,0.8-0.6,1.7-0.6,2.6c0,2.8,0,5.6,0,8.4
				c0,0.2,0,0.3,0,0.5C32.8,36.7,31,36.7,29.1,36.7z"/>
		</g>
	</g>
</g>
</svg>
