<?xml version="1.0" encoding="utf-8"?>
<!-- Generator: Adobe Illustrator 24.1.0, SVG Export Plug-In . SVG Version: 6.00 Build 0)  -->
<svg version="1.1" id="Capa_1" xmlns="http://www.w3.org/2000/svg" xmlns:xlink="http://www.w3.org/1999/xlink" x="0px" y="0px"
	 viewBox="0 0 50 50" style="enable-background:new 0 0 50 50;" xml:space="preserve">
<style type="text/css">
	.st0{fill:#9BCDCE;}
	.st1{fill:#FFFFFF;}
	.st2{display:none;fill:#FFFFFF;}
</style>
<g>
	<g id="PS_1_">
		<g id="Capa_2_3_">
			<rect class="st0" width="49.9" height="50"/>
			<rect x="3.2" y="2.4" class="st1" width="43.7" height="44.8"/>
			<path class="st0" d="M12.7,34.9c0-7,0-13.9,0-20.9c0.8-0.1,1.6-0.2,2.4-0.3c2.3-0.1,4.5-0.3,6.8,0.2c1.6,0.3,3.1,1,4.1,2.3
				c1.2,1.5,1.5,3.2,1.2,5c-0.4,2.8-2.3,4.7-5.1,5.4c-1.8,0.5-3.6,0.6-5.5,0.4c0,2.7,0,5.3,0,7.9C15.3,34.9,14,34.9,12.7,34.9z
				 M16.6,20.3c0,1.1,0,2.1,0,3.2c0,0.3,0.1,0.5,0.5,0.5c1,0,2,0.1,3-0.1c1.9-0.3,3.1-1.5,3.3-3.4c0.2-1.7-0.7-3.1-2.4-3.7
				c-1.3-0.4-2.6-0.3-3.9-0.2c-0.4,0-0.4,0.2-0.4,0.5C16.6,18.2,16.6,19.2,16.6,20.3z"/>
			<path class="st0" d="M27.7,34.2c0.3-1,0.5-1.9,0.7-2.7c1,0.3,1.9,0.6,2.9,0.8c0.6,0.1,1.3,0.1,2,0.1c0.9-0.1,1.6-0.6,1.7-1.3
				c0.2-0.9-0.1-1.5-1.1-1.9c-0.8-0.4-1.6-0.7-2.3-1c-1.1-0.4-2.1-1-2.8-2c-1.4-1.9-0.7-4.8,1.5-6.1c2.6-1.4,5.2-1.1,7.8-0.1
				c-0.3,0.9-0.5,1.8-0.7,2.6c-1-0.2-1.9-0.5-2.9-0.7c-0.5-0.1-1,0-1.5,0.1c-0.7,0.1-1,0.6-1.1,1.3c-0.1,0.7,0.2,1.2,0.8,1.5
				c0.9,0.4,1.8,0.7,2.6,1.1c1.2,0.5,2.4,1.2,3,2.4c1.1,2.1,0.4,4.7-1.7,5.8C33.7,35.9,30.7,35.5,27.7,34.2z"/>
		</g>
	</g>
</g>
</svg>
